# xmcd
#
# Track frame offsets:
#	150
#	13543
#	28641
#	42170
#	55069
#	67934
#	80609
#	94518
#	106833
#	116870
#	130487
#	142310
#	154731
#	166638
#	178709
#	190743
#	203004
#
# Disc length: 2876
#
# Revision: 2
# Processed by: cddbd v1.5.1PL0 Copyright (c) Steve Scherf et al.
# Submitted via: EasyCDDAExtractor 5.0.6
# Normalized: r1:DSETVAR1
#
DISCID=de0b3a11
DTITLE=Various Artist - The Roots of Country
DYEAR=1900
DGENRE=Country
TTITLE0=The Rouse Brothers - Orange Bolssem Special
TTITLE1=The Carter Family - Engine One-Forty-Three
TTITLE2=Jimmie Rodgers - Mule Skinner Blues (Blue Yodel #8)
TTITLE3=The Cartwright Brothers - On The Old Chisholm Trail
TTITLE4=Stuart Hamblen - When The Moon Shines Down Upon The Mountain
TTITLE5=Jimmie Davis - Doggone That Train
TTITLE6=Vernon Dalhart - Eleven Cent Cotton
TTITLE7=The Tune Wranglers - Chicken Reel Stomp
TTITLE8=The Delmore Brothers - That Cannon Ball
TTITLE9=Bill Boyd's Cowboy Ramblers - The Strawberry Roan
TTITLE10=Gene Autry - Back In The Saddle Again
TTITLE11=Bob Artcher and Bonnie Blue Eyes - You Are My Sunshine
TTITLE12=Bo Willis and His Texas Playboys - New San Antonio Rose
TTITLE13=Roy Rodgers - A Gay Ranchero
TTITLE14=The Sons Of The Pioneers - Tumbling Tumbleweeds
TTITLE15=Hank Williams - Lovesick Blues
TTITLE16=Hank Snow - I'M Moving On
EXTD=
EXTT0=
EXTT1=
EXTT2=
EXTT3=
EXTT4=
EXTT5=
EXTT6=
EXTT7=
EXTT8=
EXTT9=
EXTT10=
EXTT11=
EXTT12=
EXTT13=
EXTT14=
EXTT15=
EXTT16=
PLAYORDER=
